<?xml version="1.0" encoding="UTF-8"?>
<svg id="Layer_1" data-name="Layer 1" xmlns="http://www.w3.org/2000/svg" version="1.1" viewBox="0 0 561.4 112.6">
  <defs>
    <style>
      .cls-1 {
        fill: #fff;
      }

      .cls-1, .cls-2, .cls-3, .cls-4 {
        stroke: #231f20;
        stroke-miterlimit: 10;
      }

      .cls-2 {
        fill: #208842;
      }

      .cls-3 {
        fill: #216a35;
      }

      .cls-4 {
        fill: #0ca44a;
      }
    </style>
  </defs>
  <g>
    <polygon class="cls-3" points="137.4 75 69.2 112.1 1 75 69.2 37.7 137.4 75"/>
    <polygon class="cls-2" points="137.4 57 69.2 94 1 57 69.2 19.7 137.4 57"/>
    <polygon class="cls-4" points="137.4 37.8 69.2 74.9 1 37.8 69.2 .6 137.4 37.8"/>
  </g>
  <g>
    <path class="cls-4" d="M145.4,91.2l6.1-61h54.4c12-.2,17.7,6.2,17,19.4l-4.2,41.6h-15.4l3.6-36.8c.9-4.6-.4-6.8-3.9-6.7h-8.1s-4.4,43.4-4.4,43.4h-15.4s4.3-43.5,4.3-43.5h-13.1s-4.3,43.6-4.3,43.6h-16.7Z"/>
    <path class="cls-4" d="M227.4,30.3h42c11.6,1,17.5,6.2,17.7,15.7-.2,6-2.1,10.6-5.6,13.8,4.6,2.7,6.3,7.8,5.2,15.3-1.6,10.7-9.6,15.9-23.9,15.8h-41.4s5.9-60.6,5.9-60.6h0ZM262.3,76.3c3.3-.1,5.2-1.3,5.6-3.7.4-2.4-1.3-3.7-5-4.1l-20.7-.2-.8,8h20.9ZM243.4,53.5h20.9c3.3,0,5.2-1.3,5.6-3.6.4-2.3-1.2-3.8-4.8-4.3h-21l-.8,8Z"/>
    <path class="cls-4" d="M344.2,30.2l-1.7,17.2h-31.1s-2.1,20.5-2.1,20.5c0,3.6,1.8,5.7,5.6,6h36.9s-1.6,17.1-1.6,17.1h-41.8c-13.2-.7-19-8.2-17.4-22.8l2.2-21.1h-5c0,0,1.7-17,1.7-17h54.3Z"/>
    <path class="cls-4" d="M357.8,30.3h17.7l-6,60.7h-18.1s6.4-60.7,6.4-60.7Z"/>
    <path class="cls-4" d="M397,30.2l-3.8,37.7c0,3.6,1.8,5.7,5.6,6h36.9s-1.6,17.1-1.6,17.1h-41.8c-13.2-.7-19-8.2-17.4-22.8l3.9-38.1h18.3Z"/>
    <path class="cls-4" d="M496.1,90.9h-42.8c-12.3-.7-17.4-10.8-15.5-30.3,1.9-19.5,9.5-29.6,22.8-30.2h41.6l-1.5,14.7h-36.9c-3.1,0-5,.7-5.6,2.4l-1.5,5.2h43.2s-1.6,14.6-1.6,14.6l-42.9-.2v3.4c.2,2.9,1.2,4.4,3.2,4.7h39s-1.6,15.7-1.6,15.7Z"/>
    <path class="cls-4" d="M525.7,46.1c-2.3,0-4,.1-5.3.3s-2.3,1.1-3.2,2.7c.3,2,1.1,3.1,2.3,3.3s3.2.4,5.9.4h16.4c6.6.4,11.2,2.3,13.8,5.7,2.6,3.4,3.6,8.2,3,14.4-1,6.2-3.2,10.7-6.5,13.6-3.3,2.9-8.9,4.5-16.6,4.6h-36.7l1.6-15.6h34.9c3,0,5.3-.1,6.9-.3,1.6-.2,2.7-1.4,3.2-3.5-.2-1.7-1-2.7-2.4-3-1.4-.3-3.8-.5-7-.5h-15.9c-7,0-12-1.7-14.9-5.1-2.9-3.4-4-8.1-3.5-14.2,1.1-6.3,3.4-10.9,6.9-13.8s8.9-4.5,16.3-4.8h35.8l-1.6,15.8h-33.6Z"/>
  </g>
  <g>
    <path class="cls-1" d="M54.8,51.6c3.3,1.9,5.8,2.5,7.5,1.9l13.5-7.5,14.8,8.7-15.2,8.8c-5.3,2.4-14.3-.3-26.9-8.1L14.4,35l6.7-3.3,33.6,19.9Z"/>
    <path class="cls-1" d="M45.8,20.1l53.3,30.3-6.6,3.8-53.2-30.9,6.5-3.3Z"/>
    <path class="cls-1" d="M63,11.7c5.3-1.7,12.4-.4,21.3,3.8,5.4,2.7,8.9,5.1,10.5,7.3,4.2.3,9.5,2.3,15.9,5.8,9,5.1,10.7,9.2,5.2,12.1l-15.3,8.8-53.3-30.1,15.8-7.7ZM94.7,38.4l7.8-4.3c1.1-.7.7-1.7-1.2-2.8-2-1.2-3.8-1.5-5.6-.9l-7.9,4.1,6.9,3.9h0ZM74.7,27.4l7.9-4c1.1-.7.7-1.6-1.3-2.8-2-1.1-3.9-1.5-5.8-1.1l-7.9,4,7,3.9h0Z"/>
  </g>
</svg>