<?xml version="1.0" encoding="UTF-8"?>
<svg id="Layer_1" data-name="Layer 1" xmlns="http://www.w3.org/2000/svg" version="1.1" viewBox="0 0 561.41 112.63">
  <defs>
    <style>
      .cls-1 {
        fill: #ef4136;
      }

      .cls-1, .cls-2, .cls-3, .cls-4 {
        stroke: #231f20;
        stroke-miterlimit: 10;
      }

      .cls-2 {
        fill: #f15a29;
      }

      .cls-3 {
        fill: #fff;
      }

      .cls-4 {
        fill: #ed1c24;
      }
    </style>
  </defs>
  <g>
    <polygon class="cls-2" points="137.43 75.01 69.24 112.06 1.04 75.01 69.24 37.73 137.43 75.01"/>
    <polygon class="cls-1" points="137.43 57 69.24 94.05 1.04 57 69.24 19.72 137.43 57"/>
    <polygon class="cls-4" points="137.43 37.85 69.24 74.9 1.04 37.85 69.24 .57 137.43 37.85"/>
  </g>
  <g>
    <path class="cls-4" d="M145.36,91.19l6.11-61.02,54.43.13c12.03-.35,17.71,6.07,17.04,19.25l-4.16,41.59h-15.4l3.64-36.82c.87-4.57-.45-6.79-3.95-6.68l-8.15.04-4.38,43.41-15.35.04,4.34-43.58-13.14-.04-4.34,43.67h-16.7Z"/>
    <path class="cls-4" d="M227.36,30.3h42.02c11.65.95,17.55,6.2,17.69,15.74-.2,5.98-2.07,10.57-5.59,13.75,4.57,2.72,6.32,7.82,5.25,15.31-1.65,10.67-9.61,15.93-23.9,15.79l-41.37.04,5.9-60.63ZM241.37,76.27l20.95.04c3.32-.12,5.2-1.35,5.62-3.71.42-2.36-1.27-3.72-5.05-4.1l-20.73-.22-.78,7.98ZM243.45,53.55l20.95.04c3.32-.12,5.2-1.34,5.62-3.69.42-2.34-1.18-3.79-4.79-4.34h-20.99l-.78,7.98Z"/>
    <path class="cls-4" d="M344.2,30.17l-1.69,17.17-31.09-.04-2.12,20.56c-.03,3.64,1.84,5.65,5.59,6.03l36.91.04-1.6,17.09h-41.81c-13.21-.67-19.02-8.25-17.43-22.77l2.17-21.08-4.99.09,1.73-17.09h54.34Z"/>
    <path class="cls-4" d="M357.77,30.3h17.74l-6.03,60.71h-18.13l6.42-60.71Z"/>
    <path class="cls-4" d="M397.02,30.17l-3.82,37.69c-.03,3.64,1.83,5.65,5.59,6.03l36.91.04-1.6,17.09h-41.81c-13.21-.67-19.02-8.25-17.43-22.77l3.86-38.08h18.3Z"/>
    <path class="cls-4" d="M496.11,90.93h-42.76c-12.26-.72-17.44-10.83-15.55-30.34,1.89-19.5,9.48-29.58,22.75-30.25h41.59l-1.47,14.74-36.86.04c-3.12-.12-4.99.67-5.59,2.34l-1.47,5.2,43.24.04-1.56,14.57-42.89-.17.04,3.43c.12,2.89,1.16,4.45,3.12,4.68l38.99-.04-1.56,15.74Z"/>
    <path class="cls-4" d="M559.3,46.09h-33.61c-2.28,0-4.04.11-5.27.33s-2.31,1.11-3.23,2.67c.29,1.97,1.07,3.07,2.34,3.32,1.27.25,3.24.37,5.9.37h16.44c6.59.38,11.2,2.28,13.83,5.72,2.63,3.44,3.64,8.24,3.04,14.4-.98,6.16-3.15,10.71-6.5,13.64-3.35,2.94-8.89,4.46-16.61,4.58h-36.69l1.56-15.57h34.87c3.01,0,5.3-.11,6.87-.33,1.58-.22,2.65-1.38,3.23-3.49-.2-1.68-1-2.68-2.41-3.01-1.4-.33-3.75-.5-7.05-.5h-15.87c-7,0-11.95-1.71-14.85-5.12-2.91-3.41-4.05-8.14-3.45-14.18,1.13-6.33,3.41-10.93,6.85-13.79,3.44-2.86,8.89-4.47,16.35-4.81h35.82l-1.56,15.79Z"/>
  </g>
  <g>
    <path class="cls-3" d="M22,32.8l33.39,19.93c3.35,1.87,5.86,2.51,7.52,1.94l12.98-7.47,15.12,8.71-14.59,8.83c-5.23,2.45-14.27-.27-27.12-8.14L15.5,36.13l6.5-3.34Z"/>
    <path class="cls-3" d="M38.41,24.5l6.3-3.23,53.46,30.31-6.33,3.83-53.44-30.91Z"/>
    <path class="cls-3" d="M46.06,20.57l14.93-7.66c5.01-1.69,11.87-.42,20.59,3.83,5.37,2.72,8.87,5.14,10.52,7.26,4.08.32,9.33,2.26,15.76,5.83,9.12,5.13,11.12,9.17,6.01,12.12l-14.4,8.76-53.4-30.13ZM93.03,39.61l7.38-4.26c1.06-.73.59-1.68-1.41-2.84-2-1.16-3.83-1.45-5.51-.86l-7.48,4.06,7.01,3.9ZM73,28.53l7.43-4.03c1.07-.7.61-1.62-1.37-2.77-1.98-1.15-3.86-1.5-5.64-1.07l-7.42,3.98,7.01,3.89Z"/>
  </g>
</svg>